<svg width="119" height="38" viewBox="0 0 119 38" fill="none" xmlns="http://www.w3.org/2000/svg">
<g clip-path="url(#clip0_1432_48240)">
<path d="M23.8045 18.8735C23.8045 18.2219 23.7233 17.5731 23.5637 16.9434C22.6638 13.4035 19.4363 10.9304 15.7162 10.9304H0V37.923H15.7176C15.9373 37.923 16.1556 37.9148 16.3642 37.8983C19.8282 37.6288 22.7226 35.2217 23.5637 31.91C23.7233 31.2818 23.8045 30.6315 23.8045 29.9799C23.8045 27.9055 22.9689 25.9052 21.4993 24.4274C22.9703 22.9482 23.8045 20.9494 23.8045 18.8735ZM14.1234 32.1135H6.80488V28.7757V28.0003H14.185C15.3747 28.0003 16.3348 28.9791 16.276 30.16C16.22 31.2653 15.2501 32.1135 14.1234 32.1135ZM14.185 21.1102H6.80488V16.9971H14.185C15.3397 16.9971 16.2788 17.9195 16.2788 19.0536C16.2788 20.1878 15.3397 21.1102 14.185 21.1102Z" fill="#1C2A60"/>
<path d="M56.3817 37.9245H48.4222L41.0462 25.9507L45.0169 19.4922L56.3817 37.9245ZM39.4507 10.4768L43.406 16.8816L30.3855 37.9245H22.4259L39.4507 10.4768Z" fill="#1C2A60"/>
<path d="M48.3465 8.68823H40.387L45.83 0.137472L53.8078 0L48.3465 8.68823Z" fill="#0196F0"/>
<path d="M52.5944 19.5088C52.5944 23.7415 56.2081 27.8437 61.1529 27.7681H71.4918C72.466 27.7681 73.2581 28.5462 73.2581 29.503C73.2581 30.4598 72.466 31.2379 71.4918 31.2379H55.5965L59.5154 37.9217C61.9969 37.908 67.2776 37.9217 71.727 37.9217C74.9363 37.9217 79.8223 35.3386 79.8223 29.5703C79.8223 24.0275 76.2827 22.0396 73.7368 21.3756C72.3036 20.8175 63.1852 21.1804 61.5126 21.0828C60.5385 21.0828 59.388 20.6374 59.388 19.3479C59.388 18.3347 60.0613 17.613 61.5126 17.613C62.2992 17.613 76.5626 17.602 77.7117 17.613V11.1367H60.9108C56.3187 11.1367 52.5944 14.7151 52.5944 19.5088Z" fill="#1C2A60"/>
<path d="M89.1059 11.1367H82.301V37.9231H89.1059V11.1367Z" fill="#1C2A60"/>
<path d="M91.7734 19.5857C91.7734 23.8184 95.3872 27.9206 100.332 27.845H110.669C111.644 27.845 112.436 28.6231 112.436 29.5799C112.436 30.5367 111.644 31.3148 110.669 31.3148H91.7734V37.9987C94.2563 37.9849 106.455 37.9987 110.905 37.9987C114.114 37.9987 119 35.4156 119 29.6472C119 24.1044 115.46 22.1165 112.914 21.4525C111.481 20.8944 102.363 21.2573 100.69 21.1597C99.7162 21.1597 98.5657 20.7143 98.5657 19.4248C98.5657 18.4117 99.2403 17.6899 100.69 17.6899C101.477 17.6899 115.742 17.6789 116.889 17.6899V11.2136H100.09C95.4964 11.2136 91.7734 14.792 91.7734 19.5857Z" fill="#1C2A60"/>
</g>
<defs>
<clipPath id="clip0_1432_48240">
<rect width="119" height="38" fill="white"/>
</clipPath>
</defs>
</svg>
